<svg width="16" height="15" viewBox="0 0 16 15" fill="none" xmlns="http://www.w3.org/2000/svg">
<g id="vuesax/bold/global">
<g id="vuesax/bold/global_2">
<path id="Vector" d="M5.28123 13.0691C5.26248 13.0691 5.23748 13.0816 5.21873 13.0816C4.00623 12.4816 3.01873 11.4879 2.41248 10.2754C2.41248 10.2566 2.42498 10.2316 2.42498 10.2129C3.18748 10.4379 3.97498 10.6066 4.75623 10.7379C4.89373 11.5254 5.05623 12.3066 5.28123 13.0691Z" fill="#6E9E76"/>
<path id="Vector_2" d="M13.5875 10.2816C12.9688 11.5254 11.9375 12.5316 10.6813 13.1379C10.9188 12.3441 11.1188 11.5441 11.25 10.7379C12.0375 10.6066 12.8125 10.4379 13.575 10.2129C13.5688 10.2379 13.5875 10.2629 13.5875 10.2816Z" fill="#6E9E76"/>
<path id="Vector_3" d="M13.6375 4.81855C12.85 4.58105 12.0563 4.38731 11.25 4.2498C11.1188 3.44355 10.925 2.64355 10.6813 1.8623C11.975 2.48105 13.0188 3.5248 13.6375 4.81855Z" fill="#6E9E76"/>
<path id="Vector_4" d="M5.2813 1.93086C5.0563 2.69336 4.8938 3.46836 4.76255 4.25586C3.9563 4.38086 3.1563 4.58086 2.36255 4.81836C2.9688 3.56211 3.97505 2.53086 5.2188 1.91211C5.23755 1.91211 5.26255 1.93086 5.2813 1.93086Z" fill="#6E9E76"/>
<path id="Vector_5" d="M10.1812 4.11875C8.73123 3.95625 7.26873 3.95625 5.81873 4.11875C5.97498 3.2625 6.17498 2.40625 6.45623 1.58125C6.46873 1.53125 6.46248 1.49375 6.46873 1.44375C6.96248 1.325 7.46873 1.25 7.99998 1.25C8.52498 1.25 9.03748 1.325 9.52498 1.44375C9.53123 1.49375 9.53123 1.53125 9.54373 1.58125C9.82498 2.4125 10.025 3.2625 10.1812 4.11875Z" fill="#6E9E76"/>
<path id="Vector_6" d="M4.61875 9.68086C3.75625 9.52461 2.90625 9.32461 2.08125 9.04336C2.03125 9.03086 1.99375 9.03711 1.94375 9.03086C1.825 8.53711 1.75 8.03086 1.75 7.49961C1.75 6.97461 1.825 6.46211 1.94375 5.97461C1.99375 5.96836 2.03125 5.96836 2.08125 5.95586C2.9125 5.68086 3.75625 5.47461 4.61875 5.31836C4.4625 6.76836 4.4625 8.23086 4.61875 9.68086Z" fill="#6E9E76"/>
<path id="Vector_7" d="M14.25 7.49961C14.25 8.03086 14.175 8.53711 14.0562 9.03086C14.0062 9.03711 13.9687 9.03086 13.9187 9.04336C13.0875 9.31836 12.2375 9.52461 11.3812 9.68086C11.5437 8.23086 11.5437 6.76836 11.3812 5.31836C12.2375 5.47461 13.0937 5.67461 13.9187 5.95586C13.9687 5.96836 14.0062 5.97461 14.0562 5.97461C14.175 6.46836 14.25 6.97461 14.25 7.49961Z" fill="#6E9E76"/>
<path id="Vector_8" d="M10.1812 10.8809C10.025 11.7434 9.82498 12.5934 9.54373 13.4184C9.53123 13.4684 9.53123 13.5059 9.52498 13.5559C9.03748 13.6746 8.52498 13.7496 7.99998 13.7496C7.46873 13.7496 6.96248 13.6746 6.46873 13.5559C6.46248 13.5059 6.46873 13.4684 6.45623 13.4184C6.18123 12.5871 5.97498 11.7434 5.81873 10.8809C6.54373 10.9621 7.26873 11.0184 7.99998 11.0184C8.73123 11.0184 9.46248 10.9621 10.1812 10.8809Z" fill="#6E9E76"/>
<path id="Vector_9" d="M10.3521 9.85208C8.7889 10.0493 7.2111 10.0493 5.64792 9.85208C5.45069 8.2889 5.45069 6.7111 5.64792 5.14792C7.2111 4.95069 8.7889 4.95069 10.3521 5.14792C10.5493 6.7111 10.5493 8.2889 10.3521 9.85208Z" fill="#6E9E76"/>
</g>
</g>
</svg>
